<svg width="28" height="24" viewBox="0 0 28 24" fill="none" xmlns="http://www.w3.org/2000/svg">
<g id="Frame">
<g clip-path="url(#clip0_67_209)">
<path id="Vector" d="M3.5 0C1.84531 0 0.5 1.34531 0.5 3V21C0.5 22.6547 1.84531 24 3.5 24H15.5C17.1547 24 18.5 22.6547 18.5 21V20.0953C18.3734 20.1469 18.2469 20.1891 18.1156 20.2219L15.2984 20.925C15.1578 20.9578 15.0172 20.9812 14.8766 20.9906C14.8344 20.9953 14.7922 21 14.75 21H11.75C11.4641 21 11.2063 20.8406 11.0797 20.5875L10.6672 19.7578C10.5875 19.5984 10.4281 19.5 10.2547 19.5C10.0813 19.5 9.91719 19.5984 9.84219 19.7578L9.42969 20.5875C9.29375 20.8641 8.99844 21.0281 8.69375 21C8.38906 20.9719 8.12656 20.7609 8.04219 20.4703L7.25 17.8594L6.79062 19.3969C6.50469 20.3484 5.62812 21 4.63437 21H4.25C3.8375 21 3.5 20.6625 3.5 20.25C3.5 19.8375 3.8375 19.5 4.25 19.5H4.63437C4.96719 19.5 5.25781 19.2844 5.35156 18.9656L6.05 16.6453C6.20937 16.1156 6.69688 15.75 7.25 15.75C7.80312 15.75 8.29063 16.1156 8.45 16.6453L8.99375 18.4547C9.34062 18.1641 9.78125 18 10.25 18C10.9953 18 11.675 18.4219 12.0078 19.0875L12.2141 19.5H12.6312C12.4859 19.0875 12.4578 18.6375 12.5656 18.1969L13.2687 15.3797C13.4 14.85 13.6719 14.3719 14.0563 13.9875L18.5 9.54375V7.5H12.5C11.6703 7.5 11 6.82969 11 6V0H3.5ZM12.5 0V6H18.5L12.5 0ZM26.2719 6.54844C25.5406 5.81719 24.3547 5.81719 23.6188 6.54844L22.2406 7.92656L25.5687 11.2547L26.9469 9.87656C27.6781 9.14531 27.6781 7.95938 26.9469 7.22344L26.2719 6.54844ZM15.1203 15.0469C14.9281 15.2391 14.7922 15.4781 14.7266 15.7453L14.0234 18.5625C13.9578 18.8203 14.0328 19.0875 14.2203 19.275C14.4078 19.4625 14.675 19.5375 14.9328 19.4719L17.75 18.7687C18.0125 18.7031 18.2563 18.5672 18.4484 18.375L24.5047 12.3141L21.1766 8.98594L15.1203 15.0469Z" fill="#059669"/>
</g>
</g>
<defs>
<clipPath id="clip0_67_209">
<path d="M0.5 0H27.5V24H0.5V0Z" fill="white"/>
</clipPath>
</defs>
</svg>
