<svg width="24" height="24" viewBox="0 0 24 24" fill="none" xmlns="http://www.w3.org/2000/svg">
<g id="Frame">
<g clip-path="url(#clip0_67_217)">
<path id="Vector" d="M7.12959 1.79064C7.59365 2.20783 7.63115 2.91564 7.21396 3.3797L3.83896 7.1297C3.63271 7.35939 3.34209 7.49533 3.03271 7.50002C2.72334 7.5047 2.42803 7.38752 2.20771 7.17189L0.328027 5.29689C-0.10791 4.85627 -0.10791 4.14377 0.328027 3.70314C0.763965 3.26252 1.48115 3.26252 1.91709 3.70314L2.95303 4.73908L5.53584 1.87033C5.95303 1.40627 6.66084 1.36877 7.1249 1.78595L7.12959 1.79064ZM7.12959 9.29064C7.59365 9.70783 7.63115 10.4156 7.21396 10.8797L3.83896 14.6297C3.63271 14.8594 3.34209 14.9953 3.03271 15C2.72334 15.0047 2.42803 14.8875 2.20771 14.6719L0.328027 12.7969C-0.112598 12.3563 -0.112598 11.6438 0.328027 11.2078C0.768652 10.7719 1.48115 10.7672 1.91709 11.2078L2.95303 12.2438L5.53584 9.37502C5.95303 8.91095 6.66084 8.87345 7.1249 9.29064H7.12959ZM10.4999 4.50002C10.4999 3.67033 11.1702 3.00002 11.9999 3.00002H22.4999C23.3296 3.00002 23.9999 3.67033 23.9999 4.50002C23.9999 5.3297 23.3296 6.00002 22.4999 6.00002H11.9999C11.1702 6.00002 10.4999 5.3297 10.4999 4.50002ZM10.4999 12C10.4999 11.1703 11.1702 10.5 11.9999 10.5H22.4999C23.3296 10.5 23.9999 11.1703 23.9999 12C23.9999 12.8297 23.3296 13.5 22.4999 13.5H11.9999C11.1702 13.5 10.4999 12.8297 10.4999 12ZM7.4999 19.5C7.4999 18.6703 8.17021 18 8.9999 18H22.4999C23.3296 18 23.9999 18.6703 23.9999 19.5C23.9999 20.3297 23.3296 21 22.4999 21H8.9999C8.17021 21 7.4999 20.3297 7.4999 19.5ZM2.2499 17.25C2.84664 17.25 3.41894 17.4871 3.84089 17.909C4.26285 18.331 4.4999 18.9033 4.4999 19.5C4.4999 20.0968 4.26285 20.669 3.84089 21.091C3.41894 21.513 2.84664 21.75 2.2499 21.75C1.65317 21.75 1.08087 21.513 0.658912 21.091C0.236955 20.669 -9.76697e-05 20.0968 -9.76697e-05 19.5C-9.76697e-05 18.9033 0.236955 18.331 0.658912 17.909C1.08087 17.4871 1.65317 17.25 2.2499 17.25Z" fill="#EA580C"/>
</g>
</g>
<defs>
<clipPath id="clip0_67_217">
<path d="M0 0H24V24H0V0Z" fill="white"/>
</clipPath>
</defs>
</svg>
