<svg width="27" height="24" viewBox="0 0 27 24" fill="none" xmlns="http://www.w3.org/2000/svg">
<g id="Frame">
<g clip-path="url(#clip0_611_1408)">
<path id="Vector" d="M3 0C1.34531 0 0 1.34531 0 3V21C0 22.6547 1.34531 24 3 24H15C16.6547 24 18 22.6547 18 21V20.0953C17.8734 20.1469 17.7469 20.1891 17.6156 20.2219L14.7984 20.925C14.6578 20.9578 14.5172 20.9812 14.3766 20.9906C14.3344 20.9953 14.2922 21 14.25 21H11.25C10.9641 21 10.7063 20.8406 10.5797 20.5875L10.1672 19.7578C10.0875 19.5984 9.92813 19.5 9.75469 19.5C9.58125 19.5 9.41719 19.5984 9.34219 19.7578L8.92969 20.5875C8.79375 20.8641 8.49844 21.0281 8.19375 21C7.88906 20.9719 7.62656 20.7609 7.54219 20.4703L6.75 17.8594L6.29062 19.3969C6.00469 20.3484 5.12812 21 4.13437 21H3.75C3.3375 21 3 20.6625 3 20.25C3 19.8375 3.3375 19.5 3.75 19.5H4.13437C4.46719 19.5 4.75781 19.2844 4.85156 18.9656L5.55 16.6453C5.70937 16.1156 6.19688 15.75 6.75 15.75C7.30312 15.75 7.79063 16.1156 7.95 16.6453L8.49375 18.4547C8.84062 18.1641 9.28125 18 9.75 18C10.4953 18 11.175 18.4219 11.5078 19.0875L11.7141 19.5H12.1312C11.9859 19.0875 11.9578 18.6375 12.0656 18.1969L12.7687 15.3797C12.9 14.85 13.1719 14.3719 13.5563 13.9875L18 9.54375V7.5H12C11.1703 7.5 10.5 6.82969 10.5 6V0H3ZM12 0V6H18L12 0ZM25.7719 6.54844C25.0406 5.81719 23.8547 5.81719 23.1188 6.54844L21.7406 7.92656L25.0687 11.2547L26.4469 9.87656C27.1781 9.14531 27.1781 7.95938 26.4469 7.22344L25.7719 6.54844ZM14.6203 15.0469C14.4281 15.2391 14.2922 15.4781 14.2266 15.7453L13.5234 18.5625C13.4578 18.8203 13.5328 19.0875 13.7203 19.275C13.9078 19.4625 14.175 19.5375 14.4328 19.4719L17.25 18.7687C17.5125 18.7031 17.7563 18.5672 17.9484 18.375L24.0047 12.3141L20.6766 8.98594L14.6203 15.0469Z" fill="#6FC3D8"/>
</g>
</g>
<defs>
<clipPath id="clip0_611_1408">
<path d="M0 0H27V24H0V0Z" fill="white"/>
</clipPath>
</defs>
</svg>
