<svg width="19" height="16" viewBox="0 0 19 16" fill="none" xmlns="http://www.w3.org/2000/svg">
<g id="Frame">
<g clip-path="url(#clip0_611_1460)">
<path id="Vector" d="M8.34688 14.7344C8.68437 14.8531 9.04688 14.6062 9.04688 14.25V2.45625C9.04688 2.325 8.99687 2.19375 8.89062 2.1125C8.27812 1.625 6.87187 1 5.04688 1C3.46875 1 1.99375 1.41562 1.1125 1.75312C0.759375 1.89062 0.546875 2.24063 0.546875 2.61875V14.1906C0.546875 14.5625 0.946875 14.8219 1.3 14.7063C2.28437 14.3781 3.84375 14 5.04688 14C6.10625 14 7.51562 14.4375 8.34688 14.7344ZM10.7469 14.7344C11.5781 14.4375 12.9875 14 14.0469 14C15.25 14 16.8094 14.3781 17.7938 14.7063C18.1469 14.825 18.5469 14.5625 18.5469 14.1906V2.61875C18.5469 2.24063 18.3344 1.89062 17.9813 1.75625C17.1 1.41563 15.625 1 14.0469 1C12.2219 1 10.8156 1.625 10.2031 2.1125C10.1 2.19375 10.0469 2.325 10.0469 2.45625V14.25C10.0469 14.6062 10.4125 14.8531 10.7469 14.7344Z" fill="#2563EB"/>
</g>
</g>
<defs>
<clipPath id="clip0_611_1460">
<path d="M0.546875 0H18.5469V16H0.546875V0Z" fill="white"/>
</clipPath>
</defs>
</svg>
