<svg width="17" height="16" viewBox="0 0 17 16" fill="none" xmlns="http://www.w3.org/2000/svg">
<g id="Frame">
<g clip-path="url(#clip0_611_1465)">
<path id="Vector" d="M8.51562 1.5C4.925 1.5 2.01562 4.40938 2.01562 8V9.25C2.01562 9.66562 1.68125 10 1.26562 10C0.85 10 0.515625 9.66562 0.515625 9.25V8C0.515625 3.58125 4.09688 0 8.51562 0C12.9344 0 16.5156 3.58125 16.5156 8V12.5031C16.5156 14.0219 15.2844 15.2531 13.7625 15.2531L10.3156 15.25C10.0563 15.6969 9.57187 16 9.01562 16H8.01562C7.1875 16 6.51562 15.3281 6.51562 14.5C6.51562 13.6719 7.1875 13 8.01562 13H9.01562C9.57187 13 10.0563 13.3031 10.3156 13.75L13.7656 13.7531C14.4563 13.7531 15.0156 13.1938 15.0156 12.5031V8C15.0156 4.40938 12.1062 1.5 8.51562 1.5ZM5.01562 6.5H5.51562C6.06875 6.5 6.51562 6.94688 6.51562 7.5V11C6.51562 11.5531 6.06875 12 5.51562 12H5.01562C3.9125 12 3.01562 11.1031 3.01562 10V8.5C3.01562 7.39687 3.9125 6.5 5.01562 6.5ZM12.0156 6.5C13.1187 6.5 14.0156 7.39687 14.0156 8.5V10C14.0156 11.1031 13.1187 12 12.0156 12H11.5156C10.9625 12 10.5156 11.5531 10.5156 11V7.5C10.5156 6.94688 10.9625 6.5 11.5156 6.5H12.0156Z" fill="#2563EB"/>
</g>
</g>
<defs>
<clipPath id="clip0_611_1465">
<path d="M0.515625 0H16.5156V16H0.515625V0Z" fill="white"/>
</clipPath>
</defs>
</svg>
