<svg width="24" height="24" viewBox="0 0 24 24" fill="none" xmlns="http://www.w3.org/2000/svg">
<g id="Frame">
<g clip-path="url(#clip0_611_1425)">
<path id="Vector" d="M7.13008 1.79064C7.59414 2.20783 7.63164 2.91564 7.21445 3.3797L3.83945 7.1297C3.6332 7.35939 3.34258 7.49533 3.0332 7.50002C2.72383 7.5047 2.42852 7.38752 2.2082 7.17189L0.328516 5.29689C-0.107422 4.85627 -0.107422 4.14377 0.328516 3.70314C0.764453 3.26252 1.48164 3.26252 1.91758 3.70314L2.95352 4.73908L5.53633 1.87033C5.95352 1.40627 6.66133 1.36877 7.12539 1.78595L7.13008 1.79064ZM7.13008 9.29064C7.59414 9.70783 7.63164 10.4156 7.21445 10.8797L3.83945 14.6297C3.6332 14.8594 3.34258 14.9953 3.0332 15C2.72383 15.0047 2.42852 14.8875 2.2082 14.6719L0.328516 12.7969C-0.112109 12.3563 -0.112109 11.6438 0.328516 11.2078C0.769141 10.7719 1.48164 10.7672 1.91758 11.2078L2.95352 12.2438L5.53633 9.37502C5.95352 8.91095 6.66133 8.87345 7.12539 9.29064H7.13008ZM10.5004 4.50002C10.5004 3.67033 11.1707 3.00002 12.0004 3.00002H22.5004C23.3301 3.00002 24.0004 3.67033 24.0004 4.50002C24.0004 5.3297 23.3301 6.00002 22.5004 6.00002H12.0004C11.1707 6.00002 10.5004 5.3297 10.5004 4.50002ZM10.5004 12C10.5004 11.1703 11.1707 10.5 12.0004 10.5H22.5004C23.3301 10.5 24.0004 11.1703 24.0004 12C24.0004 12.8297 23.3301 13.5 22.5004 13.5H12.0004C11.1707 13.5 10.5004 12.8297 10.5004 12ZM7.50039 19.5C7.50039 18.6703 8.1707 18 9.00039 18H22.5004C23.3301 18 24.0004 18.6703 24.0004 19.5C24.0004 20.3297 23.3301 21 22.5004 21H9.00039C8.1707 21 7.50039 20.3297 7.50039 19.5ZM2.25039 17.25C2.84713 17.25 3.41942 17.4871 3.84138 17.909C4.26334 18.331 4.50039 18.9033 4.50039 19.5C4.50039 20.0968 4.26334 20.669 3.84138 21.091C3.41942 21.513 2.84713 21.75 2.25039 21.75C1.65365 21.75 1.08136 21.513 0.6594 21.091C0.237443 20.669 0.000390612 20.0968 0.000390612 19.5C0.000390612 18.9033 0.237443 18.331 0.6594 17.909C1.08136 17.4871 1.65365 17.25 2.25039 17.25Z" fill="#4592D0"/>
</g>
</g>
<defs>
<clipPath id="clip0_611_1425">
<path d="M0 0H24V24H0V0Z" fill="white"/>
</clipPath>
</defs>
</svg>
