<svg width="26" height="26" viewBox="0 0 26 26" fill="none" xmlns="http://www.w3.org/2000/svg">
<path d="M11.7855 16.6H14.1823C14.8179 16.6 15.4276 16.3471 15.877 15.8971C16.3265 15.447 16.579 14.8365 16.579 14.2C16.579 13.5635 16.3265 12.953 15.877 12.5029C15.4276 12.0529 14.8179 11.8 14.1823 11.8H10.5871C9.86807 11.8 9.26887 12.04 8.90936 12.52L2.19839 19M6.99194 23.8L8.90936 22.12C9.26887 21.64 9.86807 21.4 10.5871 21.4H15.3806C16.6989 21.4 17.8973 20.92 18.7361 19.96L24.2487 14.68C24.7112 14.2424 24.9811 13.6388 24.999 13.0019C25.017 12.365 24.7816 11.7471 24.3446 11.284C23.9076 10.8209 23.3047 10.5507 22.6687 10.5327C22.0327 10.5147 21.4156 10.7504 20.9531 11.188L15.9199 15.868M1 17.8L8.19032 25M21.2527 9.4C21.2527 11.322 19.6968 12.88 17.7774 12.88C15.8581 12.88 14.3021 11.322 14.3021 9.4C14.3021 7.47805 15.8581 5.92 17.7774 5.92C19.6968 5.92 21.2527 7.47805 21.2527 9.4ZM9.38871 4.6C9.38871 6.58823 7.7791 8.2 5.79355 8.2C3.808 8.2 2.19839 6.58823 2.19839 4.6C2.19839 2.61177 3.808 1 5.79355 1C7.7791 1 9.38871 2.61177 9.38871 4.6Z" stroke="black" stroke-width="2" stroke-linecap="round" stroke-linejoin="round"/>
</svg>
