<svg width="312" height="312" viewBox="0 0 312 312" fill="none" xmlns="http://www.w3.org/2000/svg">
<g filter="url(#filter0_d_1240_5678)">
<circle cx="156" cy="154" r="150" fill="#FFF1D6"/>
</g>
<g filter="url(#filter1_d_1240_5678)">
<circle cx="156" cy="154" r="118.75" fill="#FFD07D"/>
</g>
<g filter="url(#filter2_d_1240_5678)">
<circle cx="156" cy="154" r="87.5" fill="#FFA726"/>
</g>
<g opacity="0.8" filter="url(#filter3_d_1240_5678)">
<circle cx="156" cy="154" r="68.75" fill="#FFF5E0" fill-opacity="0.8" shape-rendering="crispEdges"/>
</g>
<path d="M155.146 190.318V192.252H147.434V198.891H145.07V192.252H137.443V190.318H155.146ZM153.514 180.586V182.477H147.691C147.831 184.604 150.388 186.645 154.223 187.139L153.363 189.008C150.055 188.546 147.477 187.031 146.295 184.926C145.113 187.031 142.535 188.546 139.27 189.008L138.367 187.139C142.181 186.645 144.737 184.604 144.92 182.477H139.076V180.586H153.514ZM162.752 180.844C165.824 180.822 168.08 182.777 168.102 185.527C168.08 188.299 165.824 190.232 162.752 190.232C159.701 190.232 157.424 188.299 157.424 185.527C157.424 182.777 159.701 180.822 162.752 180.844ZM162.752 182.906C161.055 182.906 159.787 183.916 159.787 185.527C159.787 187.16 161.055 188.148 162.752 188.148C164.471 188.148 165.76 187.16 165.76 185.527C165.76 183.916 164.471 182.906 162.752 182.906ZM172.635 179.49V198.934H170.25V179.49H172.635ZM156.543 192.918C160.045 192.918 164.9 192.875 169.09 192.273L169.283 194.014C164.922 194.852 160.26 194.873 156.844 194.873L156.543 192.918Z" fill="#CC7300"/>
<path d="M155.5 126V138.5M155.5 151H155.531M186.75 138.5C186.75 155.759 172.759 169.75 155.5 169.75C138.241 169.75 124.25 155.759 124.25 138.5C124.25 121.241 138.241 107.25 155.5 107.25C172.759 107.25 186.75 121.241 186.75 138.5Z" stroke="#CC7300" stroke-width="4" stroke-linecap="round" stroke-linejoin="round"/>
<defs>
<filter id="filter0_d_1240_5678" x="0" y="0" width="312" height="312" filterUnits="userSpaceOnUse" color-interpolation-filters="sRGB">
<feFlood flood-opacity="0" result="BackgroundImageFix"/>
<feColorMatrix in="SourceAlpha" type="matrix" values="0 0 0 0 0 0 0 0 0 0 0 0 0 0 0 0 0 0 127 0" result="hardAlpha"/>
<feOffset dy="2"/>
<feGaussianBlur stdDeviation="3"/>
<feComposite in2="hardAlpha" operator="out"/>
<feColorMatrix type="matrix" values="0 0 0 0 0 0 0 0 0 0 0 0 0 0 0 0 0 0 0.15 0"/>
<feBlend mode="normal" in2="BackgroundImageFix" result="effect1_dropShadow_1240_5678"/>
<feBlend mode="normal" in="SourceGraphic" in2="effect1_dropShadow_1240_5678" result="shape"/>
</filter>
<filter id="filter1_d_1240_5678" x="31.25" y="31.25" width="249.5" height="249.5" filterUnits="userSpaceOnUse" color-interpolation-filters="sRGB">
<feFlood flood-opacity="0" result="BackgroundImageFix"/>
<feColorMatrix in="SourceAlpha" type="matrix" values="0 0 0 0 0 0 0 0 0 0 0 0 0 0 0 0 0 0 127 0" result="hardAlpha"/>
<feOffset dy="2"/>
<feGaussianBlur stdDeviation="3"/>
<feComposite in2="hardAlpha" operator="out"/>
<feColorMatrix type="matrix" values="0 0 0 0 0 0 0 0 0 0 0 0 0 0 0 0 0 0 0.1 0"/>
<feBlend mode="normal" in2="BackgroundImageFix" result="effect1_dropShadow_1240_5678"/>
<feBlend mode="normal" in="SourceGraphic" in2="effect1_dropShadow_1240_5678" result="shape"/>
</filter>
<filter id="filter2_d_1240_5678" x="62.5" y="62.5" width="187" height="187" filterUnits="userSpaceOnUse" color-interpolation-filters="sRGB">
<feFlood flood-opacity="0" result="BackgroundImageFix"/>
<feColorMatrix in="SourceAlpha" type="matrix" values="0 0 0 0 0 0 0 0 0 0 0 0 0 0 0 0 0 0 127 0" result="hardAlpha"/>
<feOffset dy="2"/>
<feGaussianBlur stdDeviation="3"/>
<feComposite in2="hardAlpha" operator="out"/>
<feColorMatrix type="matrix" values="0 0 0 0 0 0 0 0 0 0 0 0 0 0 0 0 0 0 0.1 0"/>
<feBlend mode="normal" in2="BackgroundImageFix" result="effect1_dropShadow_1240_5678"/>
<feBlend mode="normal" in="SourceGraphic" in2="effect1_dropShadow_1240_5678" result="shape"/>
</filter>
<filter id="filter3_d_1240_5678" x="81.25" y="81.25" width="149.5" height="149.5" filterUnits="userSpaceOnUse" color-interpolation-filters="sRGB">
<feFlood flood-opacity="0" result="BackgroundImageFix"/>
<feColorMatrix in="SourceAlpha" type="matrix" values="0 0 0 0 0 0 0 0 0 0 0 0 0 0 0 0 0 0 127 0" result="hardAlpha"/>
<feOffset dy="2"/>
<feGaussianBlur stdDeviation="3"/>
<feComposite in2="hardAlpha" operator="out"/>
<feColorMatrix type="matrix" values="0 0 0 0 0 0 0 0 0 0 0 0 0 0 0 0 0 0 0.1 0"/>
<feBlend mode="normal" in2="BackgroundImageFix" result="effect1_dropShadow_1240_5678"/>
<feBlend mode="normal" in="SourceGraphic" in2="effect1_dropShadow_1240_5678" result="shape"/>
</filter>
</defs>
</svg>
