<svg width="96" height="96" viewBox="0 0 96 96" fill="none" xmlns="http://www.w3.org/2000/svg">
<g id="&#234;&#179;&#132;&#236;&#149;&#189;&#236;&#132;&#156;">
<path id="Vector" d="M56 8V24C56 26.1217 56.8429 28.1566 58.3431 29.6569C59.8434 31.1571 61.8783 32 64 32H80M40 36H32M64 52H32M64 68H32M60 8H24C21.8783 8 19.8434 8.84285 18.3431 10.3431C16.8429 11.8434 16 13.8783 16 16V80C16 82.1217 16.8429 84.1566 18.3431 85.6569C19.8434 87.1571 21.8783 88 24 88H72C74.1217 88 76.1566 87.1571 77.6569 85.6569C79.1571 84.1566 80 82.1217 80 80V28L60 8Z" stroke="black" stroke-width="6" stroke-linecap="round" stroke-linejoin="round"/>
</g>
</svg>
