<svg width="16" height="17" viewBox="0 0 16 17" fill="none" xmlns="http://www.w3.org/2000/svg">
<g id="Frame">
<g clip-path="url(#clip0_429_711)">
<path id="Vector" d="M8 16.3828C10.1217 16.3828 12.1566 15.54 13.6569 14.0397C15.1571 12.5394 16 10.5045 16 8.38281C16 6.26108 15.1571 4.22625 13.6569 2.72596C12.1566 1.22567 10.1217 0.382813 8 0.382812C5.87827 0.382813 3.84344 1.22567 2.34315 2.72596C0.842855 4.22625 0 6.26108 0 8.38281C0 10.5045 0.842855 12.5394 2.34315 14.0397C3.84344 15.54 5.87827 16.3828 8 16.3828ZM6.75 10.8828H7.5V8.88281H6.75C6.33437 8.88281 6 8.54844 6 8.13281C6 7.71719 6.33437 7.38281 6.75 7.38281H8.25C8.66562 7.38281 9 7.71719 9 8.13281V10.8828H9.25C9.66562 10.8828 10 11.2172 10 11.6328C10 12.0484 9.66562 12.3828 9.25 12.3828H6.75C6.33437 12.3828 6 12.0484 6 11.6328C6 11.2172 6.33437 10.8828 6.75 10.8828ZM8 4.38281C8.26522 4.38281 8.51957 4.48817 8.70711 4.67571C8.89464 4.86324 9 5.1176 9 5.38281C9 5.64803 8.89464 5.90238 8.70711 6.08992C8.51957 6.27746 8.26522 6.38281 8 6.38281C7.73478 6.38281 7.48043 6.27746 7.29289 6.08992C7.10536 5.90238 7 5.64803 7 5.38281C7 5.1176 7.10536 4.86324 7.29289 4.67571C7.48043 4.48817 7.73478 4.38281 8 4.38281Z" fill="#3B82F6"/>
</g>
</g>
<defs>
<clipPath id="clip0_429_711">
<path d="M0 0.382812H16V16.3828H0V0.382812Z" fill="white"/>
</clipPath>
</defs>
</svg>
