<svg width="24" height="18" viewBox="0 0 24 18" fill="none" xmlns="http://www.w3.org/2000/svg">
<g id="lucide/laptop">
<path id="Vector" d="M19.9998 11.7091V5.27301C19.9998 4.89368 19.7891 4.5299 19.414 4.26168C19.0389 3.99346 18.5302 3.84277 17.9998 3.84277H5.99978C5.46934 3.84277 4.96064 3.99346 4.58556 4.26168C4.21049 4.5299 3.99978 4.89368 3.99978 5.27301V11.7091M19.9998 11.7091H3.99978M19.9998 11.7091L21.2798 13.5326C21.3569 13.642 21.3934 13.7637 21.3858 13.8861C21.3782 14.0085 21.3267 14.1275 21.2364 14.2315C21.1461 14.3356 21.0198 14.4214 20.8698 14.4806C20.7198 14.5397 20.5511 14.5704 20.3798 14.5695H3.61978C3.44847 14.5704 3.27972 14.5397 3.12972 14.4806C2.97972 14.4214 2.8535 14.3356 2.76315 14.2315C2.67281 14.1275 2.62137 14.0085 2.61378 13.8861C2.60618 13.7637 2.64268 13.642 2.71978 13.5326L3.99978 11.7091" stroke="black" stroke-width="2" stroke-linecap="round" stroke-linejoin="round"/>
</g>
</svg>
