<svg width="33" height="32" viewBox="0 0 33 32" fill="none" xmlns="http://www.w3.org/2000/svg">
<rect width="33" height="32" fill="white"/>
<path d="M12.375 15.9999L15.125 18.6666L20.625 13.3333M27.5 17.3333C27.5 23.9999 22.6875 27.3333 16.9675 29.2666C16.668 29.365 16.3426 29.3603 16.0463 29.2533C10.3125 27.3333 5.5 23.9999 5.5 17.3333V7.99995C5.5 7.64633 5.64487 7.30719 5.90273 7.05714C6.16059 6.80709 6.51033 6.66662 6.875 6.66662C9.625 6.66662 13.0625 5.06662 15.455 3.03995C15.7463 2.79861 16.1169 2.66602 16.5 2.66602C16.8831 2.66602 17.2537 2.79861 17.545 3.03995C19.9513 5.07995 23.375 6.66662 26.125 6.66662C26.4897 6.66662 26.8394 6.80709 27.0973 7.05714C27.3551 7.30719 27.5 7.64633 27.5 7.99995V17.3333Z" stroke="#00C471" stroke-width="3" stroke-linecap="round" stroke-linejoin="round"/>
</svg>
