<svg width="42" height="38" viewBox="0 0 42 38" fill="none" xmlns="http://www.w3.org/2000/svg">
<path d="M12.25 28.5001V19.0001C12.25 16.9005 13.1719 14.8868 14.8128 13.4022C16.4538 11.9175 18.6794 11.0834 21 11.0834C23.3206 11.0834 25.5462 11.9175 27.1872 13.4022C28.8281 14.8868 29.75 16.9005 29.75 19.0001V28.5001M12.25 28.5001H29.75M12.25 28.5001C11.3217 28.5001 10.4315 28.8337 9.77513 29.4276C9.11875 30.0214 8.75 30.8269 8.75 31.6667V33.2501C8.75 33.67 8.93437 34.0727 9.26256 34.3697C9.59075 34.6666 10.0359 34.8334 10.5 34.8334H31.5C31.9641 34.8334 32.4092 34.6666 32.7374 34.3697C33.0656 34.0727 33.25 33.67 33.25 33.2501V31.6667C33.25 30.8269 32.8813 30.0214 32.2249 29.4276C31.5685 28.8337 30.6783 28.5001 29.75 28.5001M36.75 19.0001H38.5M32.375 7.12508L31.5 7.91675M3.5 19.0001H5.25M21 3.16675V4.75008M8.62575 7.80433L9.863 8.92375M21 19.0001V28.5001" stroke="#FF5252" stroke-width="2" stroke-linecap="round" stroke-linejoin="round"/>
</svg>
