<svg width="32" height="33" viewBox="0 0 32 33" fill="none" xmlns="http://www.w3.org/2000/svg">
<path d="M15.9999 12.3749V17.8749M15.9999 23.3749H16.0132M28.9732 24.7499L18.3066 5.49994C18.074 5.07672 17.7367 4.7247 17.3291 4.47979C16.9216 4.23487 16.4583 4.10583 15.9866 4.10583C15.5149 4.10583 15.0516 4.23487 14.644 4.47979C14.2364 4.7247 13.8992 5.07672 13.6666 5.49994L2.99991 24.7499C2.76482 25.1698 2.64154 25.6463 2.64258 26.1311C2.64363 26.616 2.76894 27.0919 3.00583 27.5107C3.24273 27.9295 3.58277 28.2762 3.9915 28.5158C4.40023 28.7554 4.86312 28.8793 5.33324 28.8749H26.6666C27.1344 28.8744 27.5939 28.747 27.9989 28.5055C28.404 28.2639 28.7402 27.9167 28.9739 27.4987C29.2076 27.0808 29.3306 26.6067 29.3305 26.1242C29.3304 25.6418 29.2072 25.1678 28.9732 24.7499Z" stroke="#FFA726" stroke-width="2" stroke-linecap="round" stroke-linejoin="round"/>
</svg>
