<svg width="46" height="44" viewBox="0 0 46 44" fill="none" xmlns="http://www.w3.org/2000/svg">
<path id="Vector" d="M44.5593 18.1631L24.1553 0.496863C23.2484 -0.165621 22.1149 -0.165621 21.208 0.496863L0.804009 18.1631C-0.102837 19.0464 -0.329548 20.3714 0.577297 21.2547C1.48414 22.138 2.84441 22.3588 3.75126 21.4755L4.43139 20.5922V41.7917C4.43139 43.1167 5.33823 44 6.6985 44H38.4381C39.7984 44 40.7052 43.1167 40.7052 41.7917V20.5922L41.3853 21.2547C42.2922 22.138 43.6525 21.9172 44.5593 21.0339C45.4661 20.3714 45.4661 18.8256 44.5593 18.1631ZM22.5683 19.7089C25.969 19.7089 28.6895 22.3588 28.6895 25.6713C28.6895 28.9837 25.969 31.6336 22.5683 31.6336C19.1676 31.6336 16.4471 28.9837 16.4471 25.6713C16.4471 22.3588 19.1676 19.7089 22.5683 19.7089ZM11.2327 39.5834C11.2327 39.3626 11.2327 39.3626 11.4594 39.1418C16.4471 33.1794 25.5155 32.0753 31.6368 36.9335C32.5436 37.596 33.2237 38.2585 33.9039 39.1418C33.9039 39.1418 33.9039 39.3626 34.1306 39.5834H11.2327Z" fill="#FFD43B"/>
</svg>
